# xmcd CD database file
#
# Track frame offsets:
#	150
#	27023
#	47913
#	62530
#	84745
#	103312
#	134749
#	161992
#	187036
#	210770
#	239404
#	260185
#	281150
#	296631
#	315141
#	333870
#
# Disc length: 4796 seconds
#
# Revision: 0
# Processed by: cddbd v1.5.2PL0 Copyright (c) Steve Scherf et al.
# Submitted via: CDex 1.70beta2
#
DISCID=f412ba10
DTITLE=Face 2 Face - F2F - Vol.12 - Djab Talak GorNa Piray
DYEAR=2007
DGENRE=Salsa
TTITLE0=Djab Talak Gor Na Piray
TTITLE1=Deewangi
TTITLE2=Dard-E-Disco
TTITLE3=Mauja Hi Mauja
TTITLE4=Kaachi Kalyaan
TTITLE5=One More-Saawariya
TTITLE6=Masha-Allah
TTITLE7=Ajab Si
TTITLE8=Schatje Lief
TTITLE9=Bhaluradjwa Mix
TTITLE10=Dupata Tera
TTITLE11=My Love
TTITLE12=Soni De Nakhre
TTITLE13=Seremen-Dil Tera
TTITLE14=Bachana
TTITLE15=Godanwa Mix
EXTD=YEAR: 2007
EXTT0=
EXTT1=
EXTT2=
EXTT3=
EXTT4=
EXTT5=
EXTT6=
EXTT7=
EXTT8=
EXTT9=
EXTT10=
EXTT11=
EXTT12=
EXTT13=
EXTT14=
EXTT15=
PLAYORDER=
